/* XPM */
static char *c4bc82c7ecbb456f8b75694a95dd5733EeSShN55UTw3cI1j[] = {
/* columns rows colors chars-per-pixel */
"12 12 144 2 ",
"   c #0A0000",
".  c #140B00",
"X  c #1A1102",
"o  c #0E0C11",
"O  c #070019",
"+  c #0E011D",
"@  c #141611",
"#  c #1E191F",
"$  c #231111",
"%  c #221F10",
"&  c #231D1D",
"*  c #2C2006",
"=  c #38220A",
"-  c #392D1F",
";  c #36391A",
":  c #190123",
">  c #0F1923",
",  c #181F25",
"<  c #15162B",
"1  c #1F1E2E",
"2  c #191231",
"3  c #271C22",
"4  c #291923",
"5  c #24122A",
"6  c #22162E",
"7  c #231D2B",
"8  c #271C2A",
"9  c #2A1F2F",
"0  c #311C25",
"q  c #351E26",
"w  c #391B23",
"e  c #3A1C26",
"r  c #3C1E2A",
"t  c #231338",
"y  c #251539",
"u  c #371136",
"i  c #1F2326",
"p  c #172029",
"a  c #192533",
"s  c #2A2623",
"d  c #2B2525",
"f  c #282725",
"g  c #2D2920",
"h  c #23202B",
"j  c #22222C",
"k  c #372920",
"l  c #3D2A23",
"z  c #31212B",
"x  c #32272D",
"c  c #332B28",
"v  c #3F3625",
"b  c #3E3428",
"n  c #3D342F",
"m  c #2C2132",
"M  c #2D2532",
"N  c #282339",
"B  c #372D35",
"V  c #3C2833",
"C  c #3F2B37",
"Z  c #23313A",
"A  c #3D3532",
"S  c #3A3039",
"D  c #38323C",
"F  c #57251A",
"G  c #4E391A",
"H  c #423225",
"J  c #453325",
"K  c #493729",
"L  c #483B33",
"P  c #5B3534",
"I  c #503139",
"U  c #7C5D03",
"Y  c #7C511E",
"T  c #404122",
"R  c #46492A",
"E  c #4C4C30",
"W  c #4D423E",
"Q  c #534032",
"!  c #5B4130",
"~  c #65512E",
"^  c #7A4B3B",
"/  c #00004F",
"(  c #281646",
")  c #2A1B52",
"_  c #26234E",
"`  c #2D2648",
"'  c #373646",
"]  c #3B3041",
"[  c #3A3142",
"{  c #38394E",
"}  c #2F2750",
"|  c #2D285E",
" . c #3D2152",
".. c #392950",
"X. c #392958",
"o. c #3A3055",
"O. c #421D49",
"+. c #562344",
"@. c #423841",
"#. c #543940",
"$. c #593B43",
"%. c #4C3A50",
"&. c #513F55",
"*. c #683941",
"=. c #4F4A47",
"-. c #534940",
";. c #44415E",
":. c #534D51",
">. c #5E5550",
",. c #7B4042",
"<. c #74454D",
"1. c #674D5A",
"2. c #694859",
"3. c #75644A",
"4. c #766657",
"5. c #7C6C55",
"6. c #545A7E",
"7. c #735161",
"8. c #625C76",
"9. c #5B686E",
"0. c #7E6664",
"q. c #6A6770",
"w. c #7C7B76",
"e. c #91731B",
"r. c #8A612D",
"t. c #8B642D",
"y. c #9A7C26",
"u. c #845744",
"i. c #815054",
"p. c #8D6B50",
"a. c #99685A",
"s. c #8D6B62",
"d. c #82676C",
"f. c #817461",
"g. c #916D77",
"h. c #967E72",
"j. c #9B7A73",
"k. c #AE8E37",
"l. c #B28754",
"z. c #5A5E9D",
"x. c #6A7394",
"c. c #9C8389",
"v. c #BB9F94",
"b. c #BFA2A4",
/* pixels */
"5 o > 6.;.=.d 2 & $ P ,.",
"#.b @ { [ v X 9 D 4 I *.",
"s.3.% 7 x *   3 S z 1.g.",
"j.5.g N [ - . M H l 0.b.",
"d.-.j _ } @.B ` G = ! h.",
"c.>.' | ) %.&.( Q J K 4.",
"v.f.:.X. .2.7.O.o.8.q.w.",
"p.~ k : u <.i.+./ z.x.9.",
"C c ; O w U Y F + < a Z ",
"V A R y $.k.l.a.6 1 p , ",
"0 n T t e e.r.^ m h i d ",
"q W E ..r y.t.u.8 # s L "
};
